<?xml version="1.0" encoding="utf-8"?>
<!-- Generator: Adobe Illustrator 21.0.2, SVG Export Plug-In . SVG Version: 6.00 Build 0)  -->
<svg version="1.1" id="Layer_1" xmlns="http://www.w3.org/2000/svg" xmlns:xlink="http://www.w3.org/1999/xlink" x="0px" y="0px"
	 viewBox="0 0 15 15" style="enable-background:new 0 0 15 15;" xml:space="preserve">
<rect y="0" width="1" height="1"/>
<rect x="1" y="1" width="1" height="1"/>
<rect x="2" y="2" width="1" height="1"/>
<rect x="3" y="3" width="1" height="1"/>
<rect x="4" y="4" width="1" height="1"/>
<rect x="5" y="5" width="1" height="1"/>
<rect x="6" y="6" width="1" height="1"/>
<rect x="7" y="7" width="1" height="1"/>
<rect x="8" y="8" width="1" height="1"/>
<rect x="9" y="9" width="1" height="1"/>
<rect x="10" y="10" width="1" height="1"/>
<rect x="11" y="11" width="1" height="1"/>
<rect x="12" y="12" width="1" height="1"/>
<rect x="13" y="13" width="1" height="1"/>
<rect x="14" y="14" width="1" height="1"/>
<rect x="14" y="0" transform="matrix(-1 -4.456536e-11 4.456536e-11 -1 29 1)" width="1" height="1"/>
<rect x="13" y="1" transform="matrix(-1 -4.456536e-11 4.456536e-11 -1 27 3)" width="1" height="1"/>
<rect x="12" y="2" transform="matrix(-1 -4.547486e-11 4.547486e-11 -1 25 5)" width="1" height="1"/>
<rect x="11" y="3" transform="matrix(-1 -4.456536e-11 4.456536e-11 -1 23 7)" width="1" height="1"/>
<rect x="10" y="4" transform="matrix(-1 -4.456536e-11 4.456536e-11 -1 21 9)" width="1" height="1"/>
<rect x="9" y="5" transform="matrix(-1 -4.547486e-11 4.547486e-11 -1 19 11)" width="1" height="1"/>
<rect x="8" y="6" transform="matrix(-1 -4.456536e-11 4.456536e-11 -1 17 13)" width="1" height="1"/>
<rect x="6" y="8" transform="matrix(-1 -4.547486e-11 4.547486e-11 -1 13 17)" width="1" height="1"/>
<rect x="5" y="9" transform="matrix(-1 -4.547486e-11 4.547486e-11 -1 11 19)" width="1" height="1"/>
<rect x="4" y="10" transform="matrix(-1 -4.365587e-11 4.365587e-11 -1 9 21)" width="1" height="1"/>
<rect x="3" y="11" transform="matrix(-1 -4.547486e-11 4.547486e-11 -1 7 23)" width="1" height="1"/>
<rect x="2" y="12" transform="matrix(-1 -4.547486e-11 4.547486e-11 -1 5 25)" width="1" height="1"/>
<rect x="1" y="13" transform="matrix(-1 -4.365587e-11 4.365587e-11 -1 3 27)" width="1" height="1"/>
<rect x="0" y="14" transform="matrix(-1 -4.547486e-11 4.547486e-11 -1 1 29)" width="1" height="1"/>
<rect y="1" width="1" height="1"/>
<rect x="1" y="2" width="1" height="1"/>
<rect x="2" y="3" width="1" height="1"/>
<rect x="3" y="4" width="1" height="1"/>
<rect x="4" y="5" width="1" height="1"/>
<rect x="5" y="6" width="1" height="1"/>
<rect x="6" y="7" width="1" height="1"/>
<rect x="7" y="8" width="1" height="1"/>
<rect x="8" y="9" width="1" height="1"/>
<rect x="9" y="10" width="1" height="1"/>
<rect x="10" y="11" width="1" height="1"/>
<rect x="11" y="12" width="1" height="1"/>
<rect x="12" y="13" width="1" height="1"/>
<rect x="13" y="14" width="1" height="1"/>
<rect x="8" y="7" width="1" height="1"/>
<rect x="14" y="1" transform="matrix(-1 -4.547486e-11 4.547486e-11 -1 29 3)" width="1" height="1"/>
<rect x="13" y="2" transform="matrix(-1 -4.456536e-11 4.456536e-11 -1 27 5)" width="1" height="1"/>
<rect x="12" y="3" transform="matrix(-1 -4.456536e-11 4.456536e-11 -1 25 7)" width="1" height="1"/>
<rect x="11" y="4" transform="matrix(-1 -4.547486e-11 4.547486e-11 -1 23 9)" width="1" height="1"/>
<rect x="10" y="5" transform="matrix(-1 -4.456536e-11 4.456536e-11 -1 21 11)" width="1" height="1"/>
<rect x="9" y="6" transform="matrix(-1 -4.456536e-11 4.456536e-11 -1 19 13)" width="1" height="1"/>
<rect x="6" y="9" transform="matrix(-1 -4.365587e-11 4.365587e-11 -1 13 19)" width="1" height="1"/>
<rect x="5" y="10" transform="matrix(-1 -4.547486e-11 4.547486e-11 -1 11 21)" width="1" height="1"/>
<rect x="4" y="11" transform="matrix(-1 -4.547486e-11 4.547486e-11 -1 9 23)" width="1" height="1"/>
<rect x="3" y="12" transform="matrix(-1 -4.365587e-11 4.365587e-11 -1 7 25)" width="1" height="1"/>
<rect x="2" y="13" transform="matrix(-1 -4.547486e-11 4.547486e-11 -1 5 27)" width="1" height="1"/>
<rect x="1" y="14" transform="matrix(-1 -4.547486e-11 4.547486e-11 -1 3 29)" width="1" height="1"/>
</svg>
