<?xml version="1.0" encoding="utf-8"?>
<!-- Generator: Adobe Illustrator 21.0.0, SVG Export Plug-In . SVG Version: 6.00 Build 0)  -->
<svg version="1.1" id="Layer_1" xmlns="http://www.w3.org/2000/svg" xmlns:xlink="http://www.w3.org/1999/xlink" x="0px" y="0px"
	 viewBox="0 0 25 25" style="enable-background:new 0 0 25 25;" xml:space="preserve">
<style type="text/css">
	.st0{fill:#FFFFFF;}
</style>
<path class="st0" d="M23,1h-1v1h-2v1H5V2H3V1H1v2h1v2h1v17H2v2h2v-1h8v1h5v-1h4v1h2v-2h-1V5h1V3h1V1H23z M21,6v16H4V5h1V4h15v1h1V6z
	"/>
<g>
	<polygon points="3,1 3,0 1,0 1,1 3,1 	"/>
	<polygon points="24,1 24,0 22,0 22,1 24,1 	"/>
	<polygon points="1,1 0,1 0,3 1,3 1,1 	"/>
	<polygon points="4,2 5,2 5,1 3,1 3,2 4,2 	"/>
	<polygon points="22,2 22,1 20,1 20,2 22,2 	"/>
	<polygon points="24,1 24,3 25,3 25,1 24,1 	"/>
	<polyline points="5,2 5,3 20,3 20,2 	"/>
	<polygon points="2,3 1,3 1,5 2,5 2,3 	"/>
	<polygon points="23,4 23,5 24,5 24,3 23,3 23,4 	"/>
	<path d="M20,4H5v1H4v17h17V5h-1V4L20,4z M20,6v15H5V6h1V5h13v1H20L20,6z"/>
	<polygon points="22,6 22,22 23,22 23,5 22,5 22,6 	"/>
	<polygon points="3,21 3,5 2,5 2,22 3,22 3,21 	"/>
	<polygon points="2,22 1,22 1,24 2,24 2,22 	"/>
	<polygon points="7,23 4,23 4,24 17,24 17,23 7,23 	"/>
	<polygon points="20,23 17,23 17,24 21,24 21,23 20,23 	"/>
	<polygon points="23,24 24,24 24,22 23,22 23,24 	"/>
	<polygon points="2,24 2,25 4,25 4,24 2,24 	"/>
	<polygon points="21,24 21,25 23,25 23,24 21,24 	"/>
</g>
</svg>
