<?xml version="1.0" encoding="utf-8"?>
<!-- Generator: Adobe Illustrator 21.0.0, SVG Export Plug-In . SVG Version: 6.00 Build 0)  -->
<svg version="1.1" id="Layer_1" xmlns="http://www.w3.org/2000/svg" xmlns:xlink="http://www.w3.org/1999/xlink" x="0px" y="0px"
	 viewBox="0 0 25 8" style="enable-background:new 0 0 25 8;" xml:space="preserve">
<style type="text/css">
	.st0{fill:#FFFFFF;}
</style>
<polygon class="st0" points="12,2 13,2 13,3 14,3 14,1 11,1 11,3 12,3 12,2 "/>
<polygon class="st0" points="12,3 12,4 13,4 13,3 12,3 "/>
<polyline class="st0" points="23,8 23,6 24,6 24,4 22,4 22,5 21,5 21,4 19,4 19,3 14,3 14,4 13,4 13,6 14,6 14,7 18,7 18,5 16,5 
	16,6 15,6 15,5 16,5 16,4 18,4 18,5 19,5 19,7 18,7 18,8 14,8 14,7 13,7 13,6 12,6 12,7 11,7 11,8 7,8 7,7 6,7 6,5 7,5 7,4 9,4 9,5 
	10,5 10,6 9,6 9,5 7,5 7,7 11,7 11,6 12,6 12,4 11,4 11,3 6,3 6,4 4,4 4,5 3,5 3,4 1,4 1,6 2,6 2,8 "/>
<polygon class="st0" points="20,6 21,6 21,7 22,7 22,8 20,8 20,6 "/>
<polygon class="st0" points="3,7 4,7 4,6 5,6 5,8 3,8 3,7 "/>
<polygon points="13,1 14,1 14,0 11,0 11,1 13,1 "/>
<polygon points="8,3 11,3 11,1 10,1 10,2 6,2 6,3 8,3 "/>
<polygon points="13,2 12,2 12,3 13,3 13,2 "/>
<polygon points="14,3 19,3 19,2 15,2 15,1 14,1 14,3 "/>
<polygon points="3,4 3,3 1,3 1,4 3,4 "/>
<polygon points="6,4 6,3 4,3 4,4 6,4 "/>
<polygon points="11,3 11,4 12,4 12,3 11,3 "/>
<polygon points="13,4 14,4 14,3 13,3 13,4 "/>
<polygon points="20,4 21,4 21,3 19,3 19,4 20,4 "/>
<polygon points="24,4 24,3 22,3 22,4 24,4 "/>
<polygon points="1,4 0,4 0,6 1,6 1,4 "/>
<polygon points="4,5 4,4 3,4 3,5 4,5 "/>
<polygon points="9,5 9,4 7,4 7,5 9,5 "/>
<polygon points="12,5 12,6 13,6 13,4 12,4 12,5 "/>
<polygon points="17,4 16,4 16,5 18,5 18,4 17,4 "/>
<polygon points="22,5 22,4 21,4 21,5 22,5 "/>
<polygon points="7,5 6,5 6,7 7,7 7,5 "/>
<polygon points="10,6 10,5 9,5 9,6 10,6 "/>
<polygon points="15,6 16,6 16,5 15,5 15,6 "/>
<polygon points="24,6 25,6 25,4 24,4 24,6 "/>
<polygon points="11,7 12,7 12,6 11,6 11,7 "/>
<polygon points="14,7 14,6 13,6 13,7 14,7 "/>
<polygon points="19,6 19,5 18,5 18,7 19,7 19,6 "/>
<polyline points="25,7 24,7 24,6 23,6 23,7 23,7 23,8 25,8 "/>
<polygon points="5,8 5,6 4,6 4,7 3,7 3,8 5,8 "/>
<polygon points="9,7 7,7 7,8 11,8 11,7 9,7 "/>
<polygon points="15,8 18,8 18,7 14,7 14,8 15,8 "/>
<polygon points="22,8 22,7 21,7 21,6 20,6 20,8 22,8 "/>
<polyline points="0,7 1,7 1,6 2,6 2,8 0,8 "/>
</svg>
